<svg width="17" height="16" viewBox="0 0 17 16" fill="none" xmlns="http://www.w3.org/2000/svg">
<path d="M5 11.6667C3.15905 11.6667 1.66666 10.224 1.66666 8.44447C1.66666 6.76913 2.98932 5.3924 4.68028 5.23685M4.68028 5.23685C4.84155 3.42333 6.41549 2 8.33333 2C10.3584 2 12 3.5869 12 5.54445C12 5.65307 11.9949 5.76056 11.9851 5.8667M4.68028 5.23685C4.7855 5.22717 4.89215 5.22222 5 5.22222C5.75054 5.22222 6.44316 5.46201 7.00033 5.86667M12 11.6667C13.6569 11.6667 15 10.3683 15 8.76667C15 7.16507 13.6569 5.86667 12 5.86667C11.995 5.86667 11.99 5.86668 11.9851 5.8667M11.9851 5.8667C11.9169 6.59779 11.6191 7.26487 11.1619 7.8" stroke="white" stroke-linecap="round" stroke-linejoin="round"/>
<path d="M8.71891 9.33331L7.53618 11.1225C7.37784 11.362 7.29871 11.4818 7.34778 11.5742C7.39678 11.6666 7.53951 11.6666 7.82498 11.6666H8.84164C9.12711 11.6666 9.26984 11.6666 9.31884 11.759C9.36791 11.8515 9.28878 11.9712 9.13044 12.2108L7.94771 14" stroke="white" stroke-linecap="round" stroke-linejoin="round"/>
</svg>
