<svg width="16" height="16" viewBox="0 0 16 16" fill="none" xmlns="http://www.w3.org/2000/svg">
<path d="M6 2.43646C5.53701 1.76968 4.76725 1.33334 3.89592 1.33334C2.48064 1.33334 1.33333 2.4845 1.33333 3.90454C1.33333 4.76904 1.75855 5.53388 2.41059 6.00001" stroke="white"/>
<path d="M11.6517 6.0061C11.6567 6.00607 11.6617 6.00606 11.6667 6.00606C13.3235 6.00606 14.6667 7.35127 14.6667 9.0106C14.6667 10.3188 13.8319 11.2542 12.6667 11.6667M11.6517 6.0061C11.6616 5.89613 11.6667 5.78477 11.6667 5.67223C11.6667 3.64411 10.0251 2 8 2C6.08216 2 4.50822 3.47465 4.34695 5.35355M11.6517 6.0061C11.5835 6.76353 11.2857 7.45467 10.8285 8.00907M4.34695 5.35355C2.65599 5.5147 1.33333 6.94107 1.33333 8.6768C1.33333 10.0457 2.15607 11.1402 3.33333 11.6667M4.34695 5.35355C4.45217 5.34351 4.55882 5.33839 4.66667 5.33839C5.41721 5.33839 6.10983 5.58682 6.667 6.00606" stroke="white" stroke-linecap="round" stroke-linejoin="round"/>
<path d="M7.99853 10L8.00147 10.0052M9.99773 11.9978L10.0007 12.0029M5.99925 11.9978L6.00225 12.0029M11.997 13.9955L12 14.0007M4 13.9955L4.00299 14.0007M7.99853 14.6615L8.00147 14.6667" stroke="white" stroke-width="1.33333" stroke-linecap="round" stroke-linejoin="round"/>
</svg>
